<?xml version="1.0" encoding="utf-8"?>
<!-- Generator: Adobe Illustrator 17.0.0, SVG Export Plug-In . SVG Version: 6.00 Build 0)  -->
<!DOCTYPE svg PUBLIC "-//W3C//DTD SVG 1.1//EN" "http://www.w3.org/Graphics/SVG/1.1/DTD/svg11.dtd">
<svg version="1.1" id="Layer_1" xmlns="http://www.w3.org/2000/svg" xmlns:xlink="http://www.w3.org/1999/xlink" x="0px" y="0px"
	 width="960px" height="560px" viewBox="0 0 960 560" enable-background="new 0 0 960 560" xml:space="preserve">
<g>
	<g>
		<path fill="#1073AF" d="M705.858,221.4c-21.36-81.91-85.626-146.363-167.351-167.35C536.092,23.774,510.833,0,480,0
			c-30.647,0-56.092,23.774-58.507,54.05c-81.91,21.36-146.361,85.625-167.351,167.35c-30.276,2.415-54.05,27.674-54.05,58.507
			s23.96,56.092,54.05,58.507c21.36,82.095,85.44,146.361,167.35,167.535C423.908,536.04,449.167,560,480,560
			c30.647,0,56.092-23.774,58.507-53.863c81.91-21.36,146.176-85.625,167.535-167.535c30.09-2.6,53.863-28.047,53.863-58.694
			C759.908,249.261,736.132,223.814,705.858,221.4z M480,24.147c19.132,0,34.547,15.416,34.547,34.547S499.132,93.241,480,93.241
			s-34.547-15.416-34.547-34.547S460.868,24.147,480,24.147z M224.239,279.908c0-19.132,15.416-34.547,34.547-34.547
			s34.547,15.416,34.547,34.547s-15.416,34.547-34.547,34.547C239.654,314.455,224.239,299.038,224.239,279.908z M480,535.669
			c-19.132,0-34.547-15.416-34.547-34.547c0-19.132,15.416-34.547,34.547-34.547s34.547,15.416,34.547,34.547
			C514.547,520.252,499.132,535.669,480,535.669z M535.351,481.804c-7.987-22.846-29.905-39.376-55.351-39.376
			c-25.445,0-47.363,16.53-55.35,39.191c-70.952-19.503-126.858-75.224-146.361-146.547c22.846-8.172,39.191-29.903,39.191-55.35
			c0-25.446-16.346-47.177-39.191-55.351c19.316-71.137,75.038-126.858,146.361-146.547c7.987,22.846,29.905,39.191,55.35,39.191
			c25.446,0,47.177-16.346,55.351-39.191c71.137,19.316,126.674,75.038,146.361,146.361c-22.659,8.172-39.191,29.903-39.191,55.351
			s16.53,47.363,39.376,55.35C662.209,406.395,606.488,462.117,535.351,481.804z M701.214,314.455
			c-19.132,0-34.547-15.416-34.547-34.547c0-19.132,15.416-34.547,34.547-34.547s34.547,15.416,34.547,34.547
			C735.761,299.038,720.346,314.455,701.214,314.455z"/>
	</g>
</g>
<g>
	<g>
		<path fill="#1073AF" d="M607.231,262.448l-23.774,3.901c0.744,4.829,1.114,9.844,1.114,15.788
			c0,57.579-46.806,104.385-104.385,104.385s-104.385-46.806-104.385-104.385c0-57.579,46.806-104.385,104.385-104.385
			c32.876,0,63.709,15.788,83.025,41.42H514.92v24.147h81.91v-81.91h-24.147v31.761c-23.96-24.704-57.393-39.562-92.684-39.562
			c-70.952,0-128.53,57.579-128.53,128.53c0,70.952,57.579,128.53,128.53,128.53c70.953,0,128.53-57.579,128.716-128.716
			C608.716,274.893,608.159,268.577,607.231,262.448z"/>
	</g>
</g>
<g>
	<g>
		<path fill="#1073AF" d="M444.709,224.557v114.786l98.998-57.207L444.709,224.557z M468.856,266.535l26.746,15.602l-26.746,15.416
			V266.535z"/>
	</g>
</g>
</svg>
