<?xml version="1.0" encoding="UTF-8" standalone="no"?> <svg xmlns="http://www.w3.org/2000/svg" viewBox="0 0 24 24"><defs><style>.cls-1{fill:#3fa9f5;}</style></defs><title>Marketing, network, networking, people, social, team</title><g id="_01" data-name="01"><circle class="cls-1" cx="12" cy="5" r="2"/><rect class="cls-1" x="8" y="10" width="8" height="2"/><path d="M12,8.5a3.25,3.25,0,1,1,3.25-3.25A3.26,3.26,0,0,1,12,8.5ZM12,4a1.25,1.25,0,1,0,1.25,1.25A1.25,1.25,0,0,0,12,4Z"/><path d="M16.5,13h-9a1,1,0,0,1-1-1V10.5a4,4,0,0,1,4-4h3a4,4,0,0,1,4,4V12A1,1,0,0,1,16.5,13Zm-8-2h7v-.5a2,2,0,0,0-2-2h-3a2,2,0,0,0-2,2Z"/><path d="M12,22a1,1,0,0,1-1-1V15a1,1,0,0,1,2,0v6A1,1,0,0,1,12,22Z"/><path d="M20,19a1,1,0,0,1-1-1V16H5v2a1,1,0,0,1-2,0V15a1,1,0,0,1,1-1H20a1,1,0,0,1,1,1v3A1,1,0,0,1,20,19Z"/><path d="M5,19H3a1,1,0,0,1,0-2H5a1,1,0,0,1,0,2Z"/><path d="M13,22H11a1,1,0,0,1,0-2h2a1,1,0,0,1,0,2Z"/><path d="M21,19H19a1,1,0,0,1,0-2h2a1,1,0,0,1,0,2Z"/></g></svg>