<?xml version="1.0" encoding="UTF-8" standalone="no"?> <svg xmlns="http://www.w3.org/2000/svg" viewBox="0 0 64 64"><defs><style>.cls-1{fill:#72c1dd;}.cls-2{fill:#231f20;}</style></defs><title>Analytics, board, presentation, seo, web</title><g id="_3" data-name="3"><polygon class="cls-1" points="22.975 25.063 23 36.025 34.125 36.025 32.475 41.938 26 46.75 20.062 46.75 13.125 42.811 11.937 35 14.937 28 21 25.063 22.975 25.063"/></g><g id="_1" data-name="1"><path class="cls-2" d="M56,58H8a1,1,0,0,1-1-1V9A1,1,0,0,1,8,8H56a1,1,0,0,1,1,1V57A1,1,0,0,1,56,58ZM9,56H55V10H9Z"/><path class="cls-2" d="M56,16H8a1,1,0,0,1,0-2H56a1,1,0,0,1,0,2Z"/><circle class="cls-2" cx="12" cy="12" r="1"/><circle class="cls-2" cx="15" cy="12" r="1"/><circle class="cls-2" cx="18" cy="12" r="1"/><path class="cls-2" d="M38,33H27a1,1,0,0,1-1-1V21a1,1,0,0,1,1-1A12.013,12.013,0,0,1,39,32,1,1,0,0,1,38,33ZM28,31h8.95A10.018,10.018,0,0,0,28,22.05Z"/><path class="cls-2" d="M23,48a12,12,0,0,1,0-24,1,1,0,0,1,1,1V35H34a1,1,0,0,1,1,1A12.013,12.013,0,0,1,23,48ZM22,26.05A10,10,0,1,0,32.95,37H23a1,1,0,0,1-1-1Z"/><path class="cls-2" d="M52,28H41a1,1,0,0,1-1-1V21a1,1,0,0,1,1-1H52a1,1,0,0,1,1,1v6A1,1,0,0,1,52,28ZM42,26h9V22H42Z"/><path class="cls-2" d="M52,33H41a1,1,0,0,1,0-2H52a1,1,0,0,1,0,2Z"/><path class="cls-2" d="M52,37H38a1,1,0,0,1,0-2H52a1,1,0,0,1,0,2Z"/><path class="cls-2" d="M52,41H41a1,1,0,0,1,0-2H52a1,1,0,0,1,0,2Z"/><path class="cls-2" d="M52,45H37a1,1,0,0,1,0-2H52a1,1,0,0,1,0,2Z"/></g></svg>