<?xml version="1.0" encoding="UTF-8" standalone="no"?> <svg id="Layer_1" data-name="Layer 1" xmlns="http://www.w3.org/2000/svg" viewBox="0 0 128 128"><defs><style>.cls-1{fill:#2d3e50;}.cls-2{fill:#1d75b8;}</style></defs><title>b</title><path class="cls-1" d="M40.90427,18.04A15.15812,15.15812,0,0,1,35.0579,29.08143a7.52947,7.52947,0,0,1-9.74216.09548c-4.25692-3.12733-6.7443-9.91731-5.46071-14.90646A10.71164,10.71164,0,0,1,31.81141,6.03219C36.94158,6.68426,40.88388,11.52452,40.90427,18.04Z"/><path class="cls-1" d="M73.74962,49.1269a4.15227,4.15227,0,0,0-1.735-.33742l-12.84309.6612L49.4487,37.79436a7.42224,7.42224,0,0,0-.70508-.73278c-.04532-.03776-.09567-.073-.14352-.10828a5.93042,5.93042,0,0,0-2.00694-.96443c-.03776-.01008-.07806-.02015-.11584-.03023a7.01137,7.01137,0,0,0-.93673-.18886c-2.53322-.34246-5.074-.64212-7.60972-.9619a2.04656,2.04656,0,0,0-2.13789.99968c-1.1407,1.75764-2.31162,3.49766-3.47247,5.24271-.66981,1.00472-1.34468,2.00442-2.085,3.10986-.01007-.01259-.01511-.02265-.02517-.03524a.305.305,0,0,1-.02517.03524c-.74033-1.10544-1.41518-2.10514-2.085-3.10986-1.16085-1.745-2.33177-3.48507-3.47247-5.24271a2.04653,2.04653,0,0,0-2.13787-.99968c-.91155.11582-1.82563.22662-2.73971.33994-1.62418.20145-3.24837.40289-4.87.622a7.10661,7.10661,0,0,0-1.60908.40543.21245.21245,0,0,1-.03022.01007,6.25181,6.25181,0,0,0-3.402,2.7951,6.01162,6.01162,0,0,0-.345.68493L2.77552,55.42867l-.23922.56155a4.36907,4.36907,0,0,0-.08057,3.2257l.68744,1.8785L8.57976,75.96135a4.26721,4.26721,0,0,0,5.1571,2.62639,4.251,4.251,0,0,0,2.92352-5.25027l-1.30186-4.56784L12.41988,58.44538l2.52567-4.01387c.01511.28705.0277.56657.03526.84608.02517.91912.05287,1.83822.07806,2.75733.02517.85867.04784,1.71483.0705,2.5735L18.59681,72.786a6.268,6.268,0,0,1-1.55619,6.10391,6.11249,6.11249,0,0,1-1.36733,1.05257q.32483,11.70165.64966,23.4008c.07556,2.73214.18635,6.93739.28455,10.47533a8.43876,8.43876,0,0,0,8.37524,8.20653l5.2276.03776,5.2276-.03776a8.43876,8.43876,0,0,0,8.37524-8.20653c.09821-3.53794.209-7.74319.28455-10.47533q.66854-24.03032,1.34214-48.06569c.02267-.79824.07556-2.35695.136-3.63615,0,0,6.74853,6.70069,8.60942,8.20653a5.80982,5.80982,0,0,0,1.249.78061,4.16442,4.16442,0,0,0,.904.01007l16.1649-3.50415a4.18194,4.18194,0,0,0,1.24647-8.0076Z"/><path class="cls-2" d="M97.68165,43.06428a8.047,8.047,0,1,0,1.6462,11.3388A8.13113,8.13113,0,0,0,97.68165,43.06428Zm-1.60473,8.90409a4.12169,4.12169,0,1,1-.85757-5.69323A4.09345,4.09345,0,0,1,96.07692,51.96837Z"/><path class="cls-2" d="M91.82171,16.86675c1.31916-.15587,2.63486-.34087,4.21327-.54744.13387,1.36508.22634,2.6416.39225,3.90849a2.06075,2.06075,0,0,0,2.30067,1.98c1.23513-.163,1.87886-1.16354,1.69961-2.5884-.15557-1.23664-.2775-2.47751-.41286-3.70336,1.18626-.18865,2.444-.39247,3.703-.58787a2.03393,2.03393,0,1,0-.555-4.005c-1.26562.18894-2.51877.46143-3.77739.69717l-.427-.25461c-.12194-1.38793-.18053-2.78531-.38537-4.16089a1.95449,1.95449,0,0,0-2.3125-1.63668,1.98213,1.98213,0,0,0-1.65987,2.22832c.03335.39649.1121.78912.16928,1.18364.14094.97243.2814,1.94492.41632,2.87777-1.4166.21538-2.712.39958-4.00276.612a1.99256,1.99256,0,0,0-1.68985,2.69216A2.06224,2.06224,0,0,0,91.82171,16.86675Z"/><path class="cls-2" d="M125.65365,25.59559a2.05075,2.05075,0,0,0-1.11595-1.10424l-10.59707-4.32376a2.05126,2.05126,0,1,0-1.54983,3.79852l5.81588,2.373c-.03556.01673-.0715.032-.10648.05092-8.62235,4.6724-16.323,3.58014-26.07227,2.19727q-.66764-.0948-1.34393-.19006C79.96722,26.8913,71.60088,29.76857,67.12628,36.499a2.0512,2.0512,0,1,0,3.41629,2.27126c4.79346-7.20973,14.31913-7.04827,19.57069-6.31034q.67362.09463,1.33845.18929c10.08272,1.43016,18.7904,2.66527,28.60322-2.65207l.02773-.01689-2.54293,6.23238a2.05135,2.05135,0,1,0,3.79868,1.54987l4.32372-10.59691A2.05091,2.05091,0,0,0,125.65365,25.59559Zm-4.656,1.88225.09092.0371-.04236.10382C121.0323,27.57139,121.0151,27.5246,120.99761,27.47784Z"/></svg>