<svg height="512" viewBox="0 0 512 512" width="512" xmlns="http://www.w3.org/2000/svg"><g><g><g fill="#57a4ff"><path d="m232 168v184h48v-184zm24-64-20 40h40z"/><path d="m168 384h176v32h-176z"/><path d="m192 416h128a0 0 0 0 1 0 0v40a40 40 0 0 1 -40 40h-48a40 40 0 0 1 -40-40v-40a0 0 0 0 1 0 0z"/></g><g fill="none"><path d="m142.863 305.137-16.971 16.971"/><path d="m386.108 61.892-16.971 16.971"/><path d="m142.863 78.863-16.971-16.971"/><path d="m386.108 322.108-16.971-16.971"/></g><g fill="#57a4ff"><path d="m276 144h-40l20-40z"/><path d="m232 168h48v184h-48z"/></g></g><g fill="#004fac"><path d="m400 192c0-79.4-64.6-144-144-144s-144 64.6-144 144a143.855 143.855 0 0 0 72 124.74v59.26h-16a8 8 0 0 0 -8 8v32a8 8 0 0 0 8 8h16v32a48.051 48.051 0 0 0 48 48h48a48.051 48.051 0 0 0 48-48v-32h16a8 8 0 0 0 8-8v-32a8 8 0 0 0 -8-8h-16v-59.26a143.855 143.855 0 0 0 72-124.74zm-88 264a32.036 32.036 0 0 1 -32 32h-48a32.036 32.036 0 0 1 -32-32v-8h40a8 8 0 0 0 0-16h-40v-8h112zm24-64v16h-160v-16zm-64.94-240 .94 1.89v6.11h-32v-6.11l.94-1.89zm-22.12-16 7.06-14.11 7.06 14.11zm23.06 40v168h-32v-168zm16 184v16h-64v-16zm28.23-55.03a8.027 8.027 0 0 0 -4.23 7.06v63.97h-8v-24a8 8 0 0 0 -8-8h-8v-192a8.081 8.081 0 0 0 -.84-3.58l-24-48a8.009 8.009 0 0 0 -14.32 0l-24 48a8.081 8.081 0 0 0 -.84 3.58v192h-8a8 8 0 0 0 -8 8v24h-8v-63.97a8.027 8.027 0 0 0 -4.23-7.06 128 128 0 1 1 120.46 0z"/><path d="m264 448h8a8 8 0 0 0 0-16h-8a8 8 0 0 0 0 16z"/><path d="m256 40a8 8 0 0 0 8-8v-16a8 8 0 0 0 -16 0v16a8 8 0 0 0 8 8z"/><path d="m96 184h-24a8 8 0 0 0 0 16h24a8 8 0 0 0 0-16z"/><path d="m440 184h-24a8 8 0 0 0 0 16h24a8 8 0 0 0 0-16z"/><path d="m137.206 299.48-16.971 16.971a8 8 0 0 0 11.315 11.313l16.971-16.97a8 8 0 0 0 -11.315-11.314z"/><path d="m369.137 86.863a7.978 7.978 0 0 0 5.657-2.343l16.971-16.971a8 8 0 0 0 -11.315-11.313l-16.971 16.97a8 8 0 0 0 5.658 13.657z"/><path d="m137.206 84.52a8 8 0 0 0 11.315-11.314l-16.971-16.97a8 8 0 0 0 -11.315 11.313z"/><path d="m374.794 299.48a8 8 0 1 0 -11.315 11.314l16.971 16.97a8 8 0 0 0 11.315-11.313z"/><path d="m256 184a8 8 0 0 0 -8 8v104a8 8 0 0 0 16 0v-104a8 8 0 0 0 -8-8z"/><path d="m256 312a8 8 0 0 0 -8 8v8a8 8 0 0 0 16 0v-8a8 8 0 0 0 -8-8z"/></g></g></svg>