<svg width="35" height="20" viewBox="0 0 35 20" fill="none" xmlns="http://www.w3.org/2000/svg">
<path d="M34.0959 14.5225L19.8197 0.947071C19.5103 0.646976 19.1423 0.408786 18.7367 0.246237C18.3312 0.0836888 17.8962 0 17.4569 0C17.0176 0 16.5827 0.0836888 16.1771 0.246237C15.7716 0.408786 15.4036 0.646976 15.0942 0.947071L0.984356 14.5225C0.672447 14.8201 0.424877 15.1742 0.25593 15.5644C0.0869819 15.9546 0 16.373 0 16.7957C0 17.2184 0.0869819 17.6369 0.25593 18.027C0.424877 18.4172 0.672447 18.7713 0.984356 19.069C1.60786 19.6653 2.4513 20 3.33045 20C4.20961 20 5.05304 19.6653 5.67655 19.069L17.4569 7.73477L29.2373 19.069C29.8572 19.6605 30.6938 19.9939 31.5668 19.9975C32.0047 19.9999 32.4389 19.9191 32.8444 19.7598C33.2498 19.6005 33.6186 19.3657 33.9295 19.069C34.2526 18.782 34.5133 18.4363 34.6967 18.0519C34.8801 17.6674 34.9825 17.2518 34.9979 16.8291C35.0134 16.4063 34.9417 15.9848 34.7868 15.5889C34.632 15.193 34.3972 14.8306 34.0959 14.5225Z" fill="#C8C4C0"/>
</svg>
