<svg width="25" height="24" viewBox="0 0 25 24" fill="none" xmlns="http://www.w3.org/2000/svg">
<path d="M23.5616 0H2.18676C1.83643 0 1.50045 0.139071 1.25273 0.386619C1.00501 0.634167 0.865845 0.969914 0.865845 1.32V22.68C0.865845 22.8533 0.900011 23.025 0.966394 23.1851C1.03278 23.3453 1.13007 23.4908 1.25273 23.6134C1.37539 23.736 1.52101 23.8332 1.68127 23.8995C1.84153 23.9659 2.0133 24 2.18676 24H13.6908V14.7H10.5686V11.1H13.6908V8.4C13.6261 7.76611 13.701 7.12575 13.9102 6.52385C14.1194 5.92194 14.4578 5.37305 14.9017 4.91569C15.3457 4.45833 15.8844 4.10357 16.4801 3.87629C17.0758 3.649 17.714 3.5547 18.35 3.6C19.2846 3.59425 20.2188 3.64233 21.1479 3.744V6.984H19.2386C17.7256 6.984 17.4374 7.704 17.4374 8.748V11.064H21.0399L20.5715 14.664H17.4374V24H23.5616C23.7351 24 23.9068 23.9659 24.0671 23.8995C24.2274 23.8332 24.373 23.736 24.4956 23.6134C24.6183 23.4908 24.7156 23.3453 24.782 23.1851C24.8484 23.025 24.8825 22.8533 24.8825 22.68V1.32C24.8825 1.14666 24.8484 0.975008 24.782 0.814858C24.7156 0.654708 24.6183 0.509193 24.4956 0.386619C24.373 0.264046 24.2274 0.166815 24.0671 0.100479C23.9068 0.0341429 23.7351 0 23.5616 0Z" fill="#8D8F8D"/>
</svg>
