<svg width="55" height="52" viewBox="0 0 55 52" fill="none" xmlns="http://www.w3.org/2000/svg">
<path d="M41.7853 13.2045C39.9282 11.364 37.4662 10.245 34.8469 10.051C32.2275 9.85704 29.6249 10.6009 27.5123 12.1473C25.2868 10.5073 22.5168 9.76359 19.76 10.066C17.0033 10.3685 14.4646 11.6946 12.6551 13.7774C10.8457 15.8601 9.89998 18.5448 10.0084 21.2908C10.1168 24.0367 11.2713 26.64 13.2394 28.5764L26.2705 41.4874C26.4331 41.6498 26.6265 41.7787 26.8397 41.8667C27.0528 41.9547 27.2814 42 27.5123 42C27.7433 42 27.9719 41.9547 28.185 41.8667C28.3982 41.7787 28.5916 41.6498 28.7542 41.4874L41.7853 28.5764C42.8044 27.5673 43.6129 26.3691 44.1645 25.0503C44.7161 23.7315 45 22.318 45 20.8904C45 19.4629 44.7161 18.0493 44.1645 16.7305C43.6129 15.4118 42.8044 14.2136 41.7853 13.2045ZM39.319 26.1328L27.5123 37.8134L15.7057 26.1328C14.6652 25.0977 13.9565 23.7812 13.6683 22.3485C13.3802 20.9158 13.5254 19.4307 14.0859 18.0795C14.6463 16.7282 15.597 15.5711 16.8187 14.7531C18.0404 13.9352 19.4787 13.4929 20.9531 13.4818C22.9228 13.4865 24.8101 14.2657 26.2005 15.648C26.3631 15.8105 26.5566 15.9394 26.7697 16.0274C26.9828 16.1154 27.2115 16.1607 27.4424 16.1607C27.6733 16.1607 27.9019 16.1154 28.1151 16.0274C28.3282 15.9394 28.5217 15.8105 28.6843 15.648C30.1156 14.4191 31.9648 13.7749 33.8574 13.8457C35.7501 13.9166 37.5449 14.6972 38.8786 16.0296C40.2122 17.362 40.9852 19.1467 41.041 21.0225C41.0968 22.8982 40.4313 24.7249 39.1791 26.1328H39.319Z" fill="black"/>
</svg>
