<svg width="25" height="24" viewBox="0 0 25 24" fill="none" xmlns="http://www.w3.org/2000/svg">
<path d="M19.2874 4.152C19.0024 4.152 18.7238 4.23645 18.4868 4.39468C18.2498 4.55291 18.0651 4.77781 17.9561 5.04094C17.847 5.30406 17.8185 5.5936 17.8741 5.87293C17.9297 6.15226 18.0669 6.40885 18.2684 6.61023C18.47 6.81162 18.7267 6.94877 19.0062 7.00433C19.2858 7.05989 19.5755 7.03138 19.8388 6.92239C20.1021 6.8134 20.3272 6.62883 20.4855 6.39202C20.6439 6.15521 20.7284 5.87681 20.7284 5.592C20.7284 5.21009 20.5766 4.84382 20.3063 4.57377C20.0361 4.30371 19.6695 4.152 19.2874 4.152ZM24.8112 7.056C24.7879 6.06036 24.6012 5.07528 24.2588 4.14C23.9535 3.33976 23.4783 2.61513 22.8659 2.016C22.2712 1.40091 21.5444 0.929012 20.7404 0.636C19.8069 0.283393 18.8201 0.092652 17.8224 0.0719999C16.5495 -6.70552e-08 16.1412 0 12.8749 0C9.60865 0 9.20037 -6.70552e-08 7.92748 0.0719999C6.92977 0.092652 5.94291 0.283393 5.00945 0.636C4.20691 0.931978 3.48071 1.40347 2.88398 2.016C2.26846 2.61021 1.79623 3.33653 1.50302 4.14C1.15017 5.07281 0.959294 6.05898 0.938627 7.056C0.866577 8.328 0.866577 8.736 0.866577 12C0.866577 15.264 0.866577 15.672 0.938627 16.944C0.959294 17.941 1.15017 18.9272 1.50302 19.86C1.79623 20.6635 2.26846 21.3898 2.88398 21.984C3.48071 22.5965 4.20691 23.068 5.00945 23.364C5.94291 23.7166 6.92977 23.9073 7.92748 23.928C9.20037 24 9.60865 24 12.8749 24C16.1412 24 16.5495 24 17.8224 23.928C18.8201 23.9073 19.8069 23.7166 20.7404 23.364C21.5444 23.071 22.2712 22.5991 22.8659 21.984C23.481 21.3871 23.9566 20.6618 24.2588 19.86C24.6012 18.9247 24.7879 17.9396 24.8112 16.944C24.8112 15.672 24.8833 15.264 24.8833 12C24.8833 8.736 24.8833 8.328 24.8112 7.056ZM22.6497 16.8C22.641 17.5617 22.5029 18.3164 22.2414 19.032C22.0497 19.5542 21.7417 20.0261 21.3408 20.412C20.9513 20.8086 20.4801 21.1157 19.9598 21.312C19.2438 21.5733 18.4885 21.7113 17.7263 21.72C16.5255 21.78 16.0811 21.792 12.9229 21.792C9.76476 21.792 9.32045 21.792 8.11961 21.72C7.32813 21.7348 6.54003 21.613 5.79 21.36C5.29259 21.1537 4.84297 20.8473 4.46908 20.46C4.07051 20.0745 3.7664 19.6022 3.58046 19.08C3.28729 18.3542 3.12468 17.5823 3.10013 16.8C3.10013 15.6 3.02808 15.156 3.02808 12C3.02808 8.844 3.02808 8.4 3.10013 7.2C3.10551 6.42127 3.24777 5.64953 3.52042 4.92C3.73182 4.41349 4.05631 3.96199 4.46908 3.6C4.83391 3.1874 5.28479 2.85971 5.79 2.64C6.52197 2.37605 7.29344 2.2381 8.07158 2.232C9.27241 2.232 9.71672 2.16 12.8749 2.16C16.0331 2.16 16.4774 2.16 17.6783 2.232C18.4405 2.24074 19.1957 2.3787 19.9118 2.64C20.4575 2.84238 20.9473 3.17142 21.3408 3.6C21.7343 3.96861 22.0418 4.41928 22.2414 4.92C22.5083 5.65072 22.6464 6.42214 22.6497 7.2C22.7097 8.4 22.7218 8.844 22.7218 12C22.7218 15.156 22.7097 15.6 22.6497 16.8ZM12.8749 5.844C11.657 5.84637 10.4672 6.20943 9.45573 6.8873C8.44426 7.56517 7.65655 8.52744 7.19213 9.6525C6.72771 10.7776 6.60743 12.015 6.84648 13.2083C7.08553 14.4017 7.67319 15.4974 8.53519 16.3572C9.3972 17.2169 10.4949 17.802 11.6895 18.0386C12.8842 18.2751 14.1222 18.1525 15.2471 17.6862C16.3721 17.22 17.3335 16.4309 18.0098 15.4188C18.6862 14.4068 19.0472 13.217 19.0472 12C19.0488 11.1901 18.8901 10.3879 18.5804 9.63955C18.2706 8.89117 17.8158 8.21137 17.2422 7.63926C16.6686 7.06715 15.9874 6.61401 15.2379 6.30592C14.4884 5.99782 13.6853 5.84084 12.8749 5.844ZM12.8749 15.996C12.084 15.996 11.3109 15.7616 10.6533 15.3226C9.99572 14.8835 9.48319 14.2594 9.18053 13.5292C8.87787 12.799 8.79868 11.9956 8.95297 11.2204C9.10727 10.4453 9.48811 9.73325 10.0474 9.1744C10.6066 8.61555 11.3191 8.23497 12.0948 8.08078C12.8705 7.9266 13.6745 8.00573 14.4052 8.30818C15.1359 8.61063 15.7604 9.1228 16.1998 9.77994C16.6392 10.4371 16.8737 11.2097 16.8737 12C16.8737 12.5248 16.7703 13.0444 16.5693 13.5292C16.3683 14.014 16.0738 14.4545 15.7025 14.8256C15.3312 15.1967 14.8903 15.491 14.4052 15.6918C13.92 15.8926 13.4 15.996 12.8749 15.996Z" fill="#8D8F8D"/>
</svg>
