<svg width="20" height="24" viewBox="0 0 20 24" fill="none" xmlns="http://www.w3.org/2000/svg">
<path d="M9.62892 0C7.10761 0 4.68957 1.01142 2.90673 2.81177C1.1239 4.61211 0.122314 7.0539 0.122314 9.59997C0.122314 16.0799 8.50001 23.3999 8.8565 23.7119C9.07175 23.8978 9.34568 24 9.62892 24C9.91216 24 10.1861 23.8978 10.4013 23.7119C10.8172 23.3999 19.1355 16.0799 19.1355 9.59997C19.1355 7.0539 18.1339 4.61211 16.3511 2.81177C14.5683 1.01142 12.1502 0 9.62892 0ZM9.62892 21.1799C7.09778 18.7799 2.49896 13.608 2.49896 9.59997C2.49896 7.69042 3.25015 5.85907 4.58728 4.50882C5.9244 3.15856 7.73794 2.39999 9.62892 2.39999C11.5199 2.39999 13.3334 3.15856 14.6706 4.50882C16.0077 5.85907 16.7589 7.69042 16.7589 9.59997C16.7589 13.608 12.16 18.7919 9.62892 21.1799ZM9.62892 4.79998C8.6888 4.79998 7.7698 5.0815 6.98812 5.60893C6.20645 6.13636 5.5972 6.88601 5.23744 7.76309C4.87767 8.64018 4.78354 9.60529 4.96695 10.5364C5.15036 11.4675 5.60306 12.3228 6.26782 12.9941C6.93259 13.6654 7.77954 14.1225 8.70159 14.3077C9.62364 14.4929 10.5794 14.3979 11.4479 14.0346C12.3165 13.6713 13.0588 13.0561 13.5811 12.2667C14.1034 11.4773 14.3822 10.5493 14.3822 9.59997C14.3822 8.32693 13.8814 7.10604 12.99 6.20587C12.0986 5.3057 10.8896 4.79998 9.62892 4.79998ZM9.62892 12C9.15886 12 8.69936 11.8592 8.30852 11.5955C7.91768 11.3318 7.61306 10.9569 7.43318 10.5184C7.25329 10.0799 7.20623 9.59731 7.29793 9.13175C7.38964 8.6662 7.61599 8.23856 7.94837 7.90292C8.28075 7.56727 8.70423 7.3387 9.16525 7.24609C9.62628 7.15349 10.1041 7.20102 10.5384 7.38267C10.9727 7.56431 11.3439 7.87193 11.605 8.26661C11.8662 8.66128 12.0056 9.1253 12.0056 9.59997C12.0056 10.2365 11.7552 10.8469 11.3095 11.297C10.8638 11.7471 10.2592 12 9.62892 12Z" fill="#8D8F8D"/>
</svg>
