<svg width="55" height="52" viewBox="0 0 55 52" fill="none" xmlns="http://www.w3.org/2000/svg">
<path d="M30.9957 35.6209C31.4615 35.6209 31.9082 35.4528 32.2376 35.1538C32.5669 34.8547 32.752 34.4491 32.752 34.0261V30.8366C32.752 30.4136 32.5669 30.008 32.2376 29.7089C31.9082 29.4098 31.4615 29.2418 30.9957 29.2418C30.5299 29.2418 30.0831 29.4098 29.7538 29.7089C29.4244 30.008 29.2393 30.4136 29.2393 30.8366V34.0261C29.2393 34.4491 29.4244 34.8547 29.7538 35.1538C30.0831 35.4528 30.5299 35.6209 30.9957 35.6209ZM23.9704 35.6209C24.4362 35.6209 24.8829 35.4528 25.2123 35.1538C25.5417 34.8547 25.7267 34.4491 25.7267 34.0261V30.8366C25.7267 30.4136 25.5417 30.008 25.2123 29.7089C24.8829 29.4098 24.4362 29.2418 23.9704 29.2418C23.5046 29.2418 23.0579 29.4098 22.7285 29.7089C22.3991 30.008 22.2141 30.4136 22.2141 30.8366V34.0261C22.2141 34.4491 22.3991 34.8547 22.7285 35.1538C23.0579 35.4528 23.5046 35.6209 23.9704 35.6209ZM39.7772 16.4837H37.3535L34.3151 10.9817C34.2223 10.7793 34.0844 10.5964 33.9102 10.4445C33.736 10.2926 33.5292 10.1749 33.3026 10.0989C33.0761 10.0229 32.8347 9.99009 32.5936 10.0026C32.3525 10.0151 32.1168 10.0726 31.9013 10.1716C31.6857 10.2705 31.495 10.4088 31.341 10.5777C31.1869 10.7466 31.0729 10.9426 31.0061 11.1533C30.9392 11.364 30.9209 11.585 30.9524 11.8024C30.9838 12.0199 31.0643 12.2291 31.1889 12.417L33.4194 16.4837H21.5467L23.7772 12.417C23.9477 12.0453 23.957 11.6287 23.8032 11.251C23.6495 10.8733 23.3441 10.5624 22.9483 10.3807C22.5526 10.199 22.0958 10.16 21.6697 10.2715C21.2435 10.383 20.8796 10.6367 20.651 10.9817L17.6125 16.4837H15.1888C13.9474 16.5008 12.7526 16.9154 11.815 17.6544C10.8775 18.3934 10.2574 19.4093 10.0642 20.5229C9.871 21.6365 10.1171 22.7763 10.759 23.7412C11.401 24.7061 12.3976 25.4342 13.573 25.7971L14.8727 37.6941C15.0037 38.8783 15.6162 39.9756 16.5905 40.7718C17.5648 41.568 18.8309 42.0059 20.1416 41.9999H34.8596C36.1703 42.0059 37.4364 41.568 38.4107 40.7718C39.385 39.9756 39.9974 38.8783 40.1285 37.6941L41.4282 25.7971C42.6062 25.4332 43.6043 24.7024 44.2458 23.7342C44.8873 22.7661 45.1308 21.623 44.933 20.5075C44.7353 19.392 44.1091 18.376 43.1655 17.6395C42.2218 16.903 41.0215 16.4936 39.7772 16.4837ZM36.5983 37.3751C36.5546 37.7699 36.3505 38.1356 36.0257 38.401C35.7009 38.6664 35.2789 38.8124 34.842 38.8104H20.1241C19.6872 38.8124 19.2651 38.6664 18.9404 38.401C18.6156 38.1356 18.4114 37.7699 18.3678 37.3751L17.1208 26.0523H37.8453L36.5983 37.3751ZM39.7772 22.8627H15.1888C14.723 22.8627 14.2763 22.6947 13.9469 22.3956C13.6176 22.0966 13.4325 21.6909 13.4325 21.268C13.4325 20.845 13.6176 20.4394 13.9469 20.1403C14.2763 19.8412 14.723 19.6732 15.1888 19.6732H39.7772C40.243 19.6732 40.6898 19.8412 41.0191 20.1403C41.3485 20.4394 41.5336 20.845 41.5336 21.268C41.5336 21.6909 41.3485 22.0966 41.0191 22.3956C40.6898 22.6947 40.243 22.8627 39.7772 22.8627Z" fill="black"/>
</svg>
