<svg width="25" height="24" viewBox="0 0 25 24" fill="none" xmlns="http://www.w3.org/2000/svg">
<path d="M16.5643 0H9.19663C2.46693 0 0.865845 1.59997 0.865845 8.31247V15.675C0.865845 22.4 2.45448 24 9.18409 24H16.5517C23.2814 24 24.8825 22.4125 24.8825 15.6875V8.325C24.8825 1.59997 23.2939 0 16.5643 0ZM20.2543 17.125H18.5031C17.8402 17.125 17.64 16.5875 16.4517 15.4C15.4134 14.4 14.9756 14.275 14.713 14.275C14.3502 14.275 14.2501 14.375 14.2501 14.875V16.45C14.2501 16.875 14.1125 17.125 12.9993 17.125C11.919 17.0524 10.8714 16.7245 9.94281 16.1681C9.01419 15.6118 8.23111 14.843 7.65806 13.925C6.29764 12.2328 5.35109 10.2469 4.89367 8.12497C4.89367 7.86247 4.99371 7.62496 5.49409 7.62496H7.24528C7.69559 7.62496 7.85823 7.82497 8.03332 8.2875C8.88388 10.7875 10.3349 12.9625 10.9228 12.9625C11.148 12.9625 11.248 12.8625 11.248 12.3V9.72496C11.173 8.55 10.5476 8.44996 10.5476 8.025C10.5558 7.91288 10.6074 7.80839 10.6915 7.73369C10.7756 7.659 10.8855 7.62 10.9979 7.62496H13.7498C14.1251 7.62496 14.2501 7.81246 14.2501 8.26246V11.7375C14.2501 12.1125 14.4128 12.2375 14.5253 12.2375C14.7505 12.2375 14.9256 12.1125 15.3384 11.7C16.2254 10.619 16.9502 9.4147 17.4899 8.12497C17.545 7.96978 17.6494 7.83689 17.7872 7.7466C17.925 7.6563 18.0886 7.61358 18.2529 7.62496H20.0041C20.5295 7.62496 20.6421 7.88746 20.5295 8.26246C19.8923 9.68843 19.1039 11.042 18.1779 12.3C17.9903 12.5875 17.9152 12.7375 18.1779 13.075C18.353 13.3375 18.9659 13.85 19.3787 14.3375C19.9791 14.9359 20.4777 15.6284 20.8547 16.3875C21.0048 16.875 20.7547 17.125 20.2543 17.125Z" fill="#8D8F8D"/>
</svg>
