<svg width="25" height="19" viewBox="0 0 25 19" fill="none" xmlns="http://www.w3.org/2000/svg">
<path d="M16.957 8.53019L11.0729 4.7877C10.8904 4.68375 10.6833 4.62903 10.4725 4.62903C10.2617 4.62903 10.0546 4.68375 9.8721 4.7877C9.69406 4.88898 9.54536 5.03364 9.44023 5.20783C9.33511 5.38201 9.27707 5.5799 9.27168 5.78254V13.2675C9.27324 13.4786 9.33195 13.6853 9.44173 13.8665C9.55152 14.0477 9.70839 14.1966 9.89612 14.2979C10.0708 14.3993 10.2699 14.4525 10.4725 14.4518C10.6852 14.4374 10.8912 14.3724 11.0729 14.2624L16.957 10.5199C17.1256 10.4125 17.2641 10.2652 17.3601 10.0914C17.456 9.91763 17.5063 9.7229 17.5063 9.52502C17.5063 9.32715 17.456 9.13242 17.3601 8.95864C17.2641 8.78485 17.1256 8.63755 16.957 8.53019ZM11.6734 11.0883V7.96171L14.075 9.52502L11.6734 11.0883ZM21.7363 0.65438L19.875 0.417513C15.265 -0.139171 10.6034 -0.139171 5.99341 0.417513L4.13211 0.65438C3.23714 0.750439 2.40939 1.16822 1.80691 1.82796C1.20442 2.48771 0.869416 3.34318 0.865845 4.23106V14.819C0.873478 15.6937 1.20269 16.536 1.79234 17.1894C2.382 17.8428 3.19204 18.263 4.07207 18.372L5.93336 18.597C8.23627 18.873 10.5544 19.0075 12.8742 18.9997C15.1945 18.9996 17.5126 18.8572 19.815 18.5733L21.6763 18.3483C22.5563 18.2393 23.3664 17.8191 23.956 17.1657C24.5457 16.5123 24.8749 15.67 24.8825 14.7953V4.23106C24.8807 3.35226 24.5541 2.50425 23.9639 1.84586C23.3737 1.18748 22.5604 0.763868 21.6763 0.65438H21.7363ZM22.5409 14.8664C22.5419 15.1647 22.4286 15.4524 22.2238 15.672C22.019 15.8916 21.7377 16.0268 21.4361 16.0507L19.5748 16.2757C15.165 16.8205 10.7035 16.8205 6.29361 16.2757L4.43232 16.0507C4.13077 16.0268 3.84947 15.8916 3.64465 15.672C3.43983 15.4524 3.32659 15.1647 3.32755 14.8664V4.23106C3.34187 3.93729 3.46031 3.65779 3.66222 3.44134C3.86412 3.2249 4.13668 3.08524 4.43232 3.04673L6.23357 2.77433C10.6439 2.23741 15.1045 2.23741 19.5148 2.77433L21.3761 2.99936C21.6717 3.03786 21.9443 3.17752 22.1462 3.39397C22.3481 3.61042 22.4665 3.88991 22.4809 4.18369L22.5409 14.8664Z" fill="#8D8F8D"/>
</svg>
