<svg width="20" height="20" viewBox="0 0 20 20" fill="none" xmlns="http://www.w3.org/2000/svg">
<path d="M17.9995 14.7278V17.287C18.0004 17.5245 17.9517 17.7597 17.8563 17.9774C17.7609 18.1951 17.6211 18.3905 17.4457 18.5511C17.2702 18.7117 17.0632 18.834 16.8376 18.9101C16.6121 18.9862 16.3732 19.0145 16.1361 18.9931C13.5059 18.7078 10.9794 17.8109 8.75957 16.3742C6.69433 15.0644 4.94337 13.3169 3.63104 11.2558C2.18648 9.03034 1.28751 6.49657 1.00694 3.85976C0.985578 3.62386 1.01367 3.3861 1.08942 3.16163C1.16518 2.93716 1.28693 2.73089 1.44694 2.55596C1.60694 2.38102 1.80169 2.24125 2.01879 2.14555C2.23589 2.04985 2.47057 2.00031 2.7079 2.00008H5.27217C5.68698 1.99601 6.08913 2.14261 6.40366 2.41257C6.71818 2.68252 6.92362 3.05741 6.98168 3.46735C7.08991 4.28635 7.29063 5.09049 7.58001 5.86445C7.69501 6.16978 7.7199 6.50162 7.65173 6.82063C7.58355 7.13965 7.42518 7.43248 7.19537 7.66441L6.10983 8.7478C7.32662 10.8835 9.09844 12.6518 11.2384 13.8662L12.3239 12.7828C12.5563 12.5534 12.8497 12.3954 13.1694 12.3273C13.489 12.2593 13.8215 12.2841 14.1274 12.3989C14.9029 12.6877 15.7087 12.888 16.5293 12.9961C16.9445 13.0545 17.3237 13.2632 17.5948 13.5825C17.8658 13.9018 18.0099 14.3094 17.9995 14.7278Z" stroke="#2581EE" stroke-width="2" stroke-linecap="round" stroke-linejoin="round"/>
</svg>
