<svg width="20" height="20" viewBox="0 0 20 20" fill="none" xmlns="http://www.w3.org/2000/svg">
<g clip-path="url(#clip0)">
<path d="M19.2954 11.5775C19.8921 6.55498 19.0087 3.38414 17.4154 1.94998L17.4162 1.94914C14.8446 -0.500025 6.15958 -0.862526 3.08291 2.05914C1.70124 3.48831 1.21458 5.58581 1.16124 8.18248C1.10791 10.78 1.04458 15.6458 5.57874 16.9658H5.58291L5.57874 18.9816C5.57874 18.9816 5.54791 19.7983 6.06958 19.9625C6.66624 20.1558 6.93624 19.7766 8.79208 17.56C11.8954 17.8291 14.2787 17.2125 14.5496 17.1225C15.1762 16.9125 18.7221 16.4433 19.2954 11.5775ZM9.09791 16.1416C9.09791 16.1416 7.13375 18.5908 6.52291 19.2266C6.32291 19.4333 6.10374 19.4141 6.10708 19.0041C6.10708 18.735 6.12208 15.6575 6.12208 15.6575C2.27791 14.5558 2.50458 10.4125 2.54624 8.24498C2.58791 6.07664 2.98458 4.30081 4.15458 3.10498C6.85375 0.574142 14.4679 1.13998 16.4079 2.96331C18.7796 5.06581 17.9354 11.0058 17.9404 11.2083C17.4529 15.27 14.5796 15.5275 14.0512 15.7033C13.8254 15.7783 11.7296 16.3175 9.09791 16.1416Z" fill="#833AAF"/>
<path d="M10.185 3.58079C9.86413 3.58079 9.86413 4.08079 10.185 4.08495C12.6741 4.10412 14.7241 5.83912 14.7466 9.02162C14.7466 9.35745 15.2383 9.35329 15.2341 9.01745H15.2333C15.2066 5.58829 12.9683 3.59995 10.185 3.58079Z" fill="#833AAF"/>
<path d="M13.4585 8.49417C13.451 8.82583 13.9418 8.84167 13.946 8.50583C13.9868 6.615 12.821 5.0575 10.6301 4.89333C10.3093 4.87 10.276 5.37417 10.596 5.3975C12.496 5.54167 13.4968 6.83833 13.4585 8.49417Z" fill="#833AAF"/>
<path d="M12.9335 10.645C12.5219 10.4067 12.1027 10.555 11.9294 10.7892L11.5669 11.2584C11.3827 11.4967 11.0385 11.465 11.0385 11.465C8.52686 10.8009 7.8552 8.17253 7.8552 8.17253C7.8552 8.17253 7.82436 7.81669 8.05436 7.62586L8.50769 7.25086C8.73436 7.07086 8.87769 6.63753 8.64686 6.21169C8.03019 5.09753 7.61603 4.71336 7.4052 4.41836C7.18353 4.14086 6.8502 4.07836 6.50353 4.26586H6.49603C5.7752 4.68753 4.98603 5.47669 5.23853 6.28919C5.66936 7.14586 6.46103 9.87669 8.98436 11.94C10.1702 12.9159 12.0469 13.9159 12.8435 14.1467L12.851 14.1584C13.636 14.42 14.3994 13.6 14.8069 12.8575V12.8517C14.9877 12.4925 14.9277 12.1525 14.6635 11.93C14.1952 11.4734 13.4885 10.9692 12.9335 10.645Z" fill="#833AAF"/>
<path d="M10.9741 6.7533C11.775 6.79997 12.1633 7.2183 12.205 8.07747C12.22 8.4133 12.7075 8.38997 12.6925 8.05413C12.6391 6.93247 12.0541 6.30746 11.0008 6.24913C10.68 6.22996 10.65 6.73413 10.9741 6.7533Z" fill="#833AAF"/>
</g>
<defs>
<clipPath id="clip0">
<rect width="20" height="20" fill="white"/>
</clipPath>
</defs>
</svg>
