<svg width="20" height="20" viewBox="0 0 20 20" fill="none" xmlns="http://www.w3.org/2000/svg">
<path d="M18.8891 16.9136V3.08642C18.8891 2 17.9973 1.11111 16.9089 1.11111H3.09158C1.95577 1.11111 1.11133 1.95358 1.11133 3.08642V16.9136C1.11133 18.0474 1.95577 18.8889 3.09158 18.8889H16.9089C17.433 18.8881 17.9354 18.6799 18.3065 18.3098C18.6776 17.9396 18.887 17.4377 18.8891 16.9136ZM15.1202 11.5872C15.1202 11.5872 16.2382 12.6904 16.5138 13.202C16.5217 13.2128 16.5247 13.2227 16.5276 13.2267C16.6392 13.4143 16.6679 13.5625 16.6116 13.6711C16.5187 13.8519 16.2027 13.9427 16.095 13.9506H14.1207C13.9824 13.9506 13.696 13.9151 13.3484 13.6751C13.0817 13.4894 12.818 13.1822 12.5612 12.883C12.178 12.4385 11.8461 12.0533 11.5123 12.0533C11.47 12.0532 11.4279 12.0602 11.3879 12.0741C11.134 12.1551 10.8121 12.5156 10.8121 13.4785C10.8121 13.7798 10.575 13.9516 10.4071 13.9516H9.50244C9.19429 13.9516 7.58935 13.844 6.16812 12.3437C4.42392 10.5067 2.8575 6.82173 2.84367 6.78914C2.74491 6.55111 2.94935 6.42173 3.17158 6.42173H5.16664C5.43429 6.42173 5.52022 6.5837 5.58145 6.72889C5.65059 6.89383 5.91133 7.55951 6.338 8.30815C7.03232 9.52593 7.45997 10.0217 7.80071 10.0217C7.86442 10.0214 7.92699 10.0047 7.98244 9.97333C8.42787 9.72741 8.34491 8.13926 8.32516 7.81136C8.32516 7.74914 8.32417 7.10123 8.09701 6.79012C7.93306 6.56494 7.65553 6.47901 7.48762 6.44642C7.55609 6.35208 7.64618 6.27554 7.75034 6.22321C8.05553 6.07111 8.60565 6.04938 9.15281 6.04938H9.45701C10.0506 6.05728 10.2047 6.0958 10.419 6.15012C10.8526 6.25383 10.8615 6.53531 10.8229 7.49333C10.8121 7.76593 10.8002 8.07506 10.8002 8.43753C10.8002 8.51556 10.7973 8.60148 10.7973 8.69037C10.7834 9.18025 10.7676 9.73432 11.1133 9.96148C11.158 9.98948 11.2097 10.0045 11.2624 10.0049C11.3829 10.0049 11.7434 10.0049 12.7202 8.32889C13.1498 7.58914 13.4807 6.71605 13.5034 6.65086C13.5379 6.58039 13.5879 6.51861 13.6496 6.47012C13.7002 6.44385 13.7565 6.43061 13.8136 6.4316H16.1592C16.416 6.4316 16.5898 6.47012 16.6224 6.5679C16.6787 6.72494 16.6116 7.20395 15.54 8.65185L15.0629 9.28395C14.0911 10.556 14.0911 10.6212 15.1202 11.5872Z" fill="#4E729D"/>
</svg>
