<svg width="20" height="20" viewBox="0 0 20 20" fill="none" xmlns="http://www.w3.org/2000/svg">
<path d="M0.919922 19.0303L2.19883 14.3844C1.41022 13.0217 0.995373 11.4763 0.995938 9.90336C0.995938 4.959 5.03844 0.936747 9.9975 0.936747C12.4078 0.936747 14.6661 1.87216 16.3653 3.56476C18.0645 5.25745 18.9992 7.51138 18.9992 9.9078C18.9992 14.8521 14.9567 18.8743 9.99758 18.8743H9.99313C8.4861 18.8743 7.00594 18.4957 5.69125 17.783L0.919922 19.0304V19.0303Z" fill="url(#paint0_linear)"/>
<path d="M7.66856 6.01474C7.4941 5.6272 7.31074 5.61825 7.14535 5.61381C7.01121 5.60937 6.85473 5.60938 6.69817 5.60938C6.54168 5.60938 6.29121 5.66727 6.0766 5.89887C5.86191 6.13054 5.2627 6.69179 5.2627 7.83661C5.2627 8.97685 6.09895 10.0815 6.2152 10.2374C6.33145 10.3933 7.82949 12.812 10.195 13.743C12.1626 14.5181 12.5651 14.3621 12.9899 14.3221C13.4192 14.282 14.3672 13.7608 14.564 13.2174C14.7562 12.674 14.7562 12.2107 14.6981 12.1127C14.64 12.0147 14.4835 11.9569 14.2509 11.841C14.0184 11.7252 12.8736 11.1639 12.659 11.0838C12.4443 11.0036 12.2879 10.968 12.1358 11.1996C11.9793 11.4312 11.5322 11.9523 11.3979 12.1083C11.2638 12.2642 11.1252 12.282 10.8926 12.1662C10.6601 12.0504 9.90887 11.8053 9.01903 11.0125C8.3259 10.3978 7.85637 9.63607 7.72215 9.40448C7.58801 9.17288 7.70879 9.04805 7.82504 8.93233C7.92785 8.82984 8.05754 8.66058 8.17387 8.52696C8.29012 8.39335 8.33035 8.29537 8.40637 8.13942C8.48239 7.98354 8.4466 7.84992 8.38848 7.73412C8.33035 7.61825 7.87426 6.4735 7.66856 6.01474Z" fill="white"/>
<defs>
<linearGradient id="paint0_linear" x1="9.95921" y1="19.0291" x2="9.95921" y2="0.935661" gradientUnits="userSpaceOnUse">
<stop stop-color="#20B038"/>
<stop offset="1" stop-color="#60D66A"/>
</linearGradient>
</defs>
</svg>
